<svg width="1000" height="156" viewBox="0 0 1000 156" fill="none" xmlns="http://www.w3.org/2000/svg">
<path d="M0 32.7718H24.1927V152.634H58.6912V32.7718H83.1088V3.14209H0V32.7718Z" fill="white"/>
<path d="M144.495 65.0943H124.333V3.14209H89.835V152.634H124.333V95.6195H144.495V152.634H178.769V3.14209H144.495V65.0943Z" fill="white"/>
<path d="M185.628 152.634H258.656V122.106H220.126V88.8845H245.216V63.0732H220.126V32.0986H258.656V3.14209H185.628V152.634Z" fill="white"/>
<path d="M342.498 3.14209H292.544V152.634H342.498C359.075 152.634 373.859 142.981 373.859 122.556V99.8841C373.859 89.1099 369.828 80.3569 357.282 76.5417C370.275 73.6235 373.859 63.0732 373.859 53.1976V33.2211C373.859 12.7938 359.075 3.14209 342.498 3.14209ZM341.601 118.514C341.601 123.677 339.361 125.697 335.555 125.697H327.042V89.5608H335.555C339.361 89.5608 341.601 91.8027 341.601 96.7436V118.514ZM341.601 58.8086C341.601 63.7464 339.361 65.9914 335.555 65.9914H327.042V30.3029H335.555C339.361 30.3029 341.601 32.3225 341.601 37.4857V58.8086Z" fill="white"/>
<path d="M423.132 0C398.714 0 379.896 15.7119 379.896 38.8321V116.942C379.896 140.288 398.714 156 423.132 156C447.325 156 466.143 140.288 466.143 116.942V38.8321C466.143 15.7119 447.325 0 423.132 0ZM430.972 118.965C430.972 123.677 427.388 126.37 423.132 126.37C418.876 126.37 415.067 123.677 415.067 118.965V36.8125C415.067 32.0986 418.876 29.4043 423.132 29.4043C427.388 29.4043 430.972 32.0986 430.972 36.8125V118.965Z" fill="white"/>
<path d="M524.095 118.965C524.095 123.677 520.511 126.37 516.033 126.37C511.999 126.37 508.415 123.677 508.415 118.965V3.14209H473.694V118.965C473.694 139.615 492.062 156 516.033 156C540.448 156 557.25 139.615 557.25 118.965V3.14209H524.095V118.965Z" fill="white"/>
<path d="M730.513 43.3205C730.513 19.3033 713.711 3.14209 688.846 3.14209H645.164V152.634H688.846C713.711 152.634 730.513 139.164 730.513 115.148V43.3205ZM696.014 112.903C696.014 120.311 693.102 124.351 686.381 124.351H679.662V31.6493H686.381C693.102 31.6493 696.014 35.4646 696.014 42.8728V112.903Z" fill="white"/>
<path d="M756.38 3.14209L730.394 152.634H761.53L764.667 130.187H785.054L787.291 152.634H821.79L796.253 3.14209H756.38ZM768.476 104.6L776.092 50.2795L781.916 104.6H768.476Z" fill="white"/>
<path d="M907.002 99.9258C907.002 92.0667 901.399 84.2107 892.44 79.9477C901.399 75.6831 906.33 67.6033 906.33 60.1951V34.1583C906.33 13.9564 889.975 2.73291 873.176 2.73291H824.787V152.225H859.286V93.1908H867.126C872.054 93.1908 874.519 97.9031 874.519 101.72C874.519 101.72 874.302 127.613 874.302 134.315C874.302 143.105 879.557 152.225 879.557 152.225H911.229C911.229 152.225 906.76 141.657 906.76 138.536C906.76 135.414 907.002 99.9258 907.002 99.9258ZM873.622 61.3176C873.622 66.4808 871.607 68.5003 867.798 68.5003H859.286V29.8937H867.798C871.607 29.8937 873.622 31.9133 873.622 37.0765V61.3176Z" fill="white"/>
<path d="M965.951 2.77588L953.405 55.5242L939.068 2.77588H903.898L933.915 90.3155V152.268H968.189V90.3155L1000 2.77588H965.951Z" fill="white"/>
<path d="M559.695 3.13477L608.342 152.85H642.526H642.553L593.682 3.13477H559.695Z" fill="white"/>
</svg>
